<mxfile host="app.diagrams.net" modified="2024-02-26T08:20:06.023Z" agent="Mozilla/5.0 (Macintosh; Intel Mac OS X 10_15_7) AppleWebKit/537.36 (KHTML, like Gecko) Chrome/121.0.0.0 Safari/537.36" version="23.1.5" etag="_vV8TmEH3zNftRvZ5m-p" type="github">
  <diagram name="Page-1" id="K_bbZ_drgRdv8l26dO2N">
    <mxGraphModel>
      <root>
        <mxCell id="0" />
        <mxCell id="1" parent="0" />
      </root>
    </mxGraphModel>
  </diagram>
</mxfile>
